# xmcd
#
# Track frame offsets:
#	150
#	19832
#	36739
#	52186
#	66877
#	80817
#	92660
#	107704
#	124858
#	138242
#	155130
#	171291
#	185416
#	198345
#	212622
#
# Disc length: 3058 seconds
#
# Revision: 1
# Processed by: cddbd v1.5.2PL0 Copyright (c) Steve Scherf et al.
# Submitted via: audiograbber 1.83.01
#
DISCID=e10bf00f
DTITLE=Various Artist - Wedding Love Songs Disc 2
DYEAR=1900
DGENRE=Karaoke
TTITLE0=LeAnn Rimes - How Do I Live
TTITLE1=LeAnn Rimes - You Light Up My Life
TTITLE2=Lifehouse - You and Me
TTITLE3=Mark Wills - I Do (Cherish You)
TTITLE4=Marvin Gaye - How Sweet It Is (To Be Loved by You)
TTITLE5=Nina Simone - I Put a Spell on You
TTITLE6=Norah Jones - Come Away with Me
TTITLE7=Roberta Flack - Tonight I Celebrate My Love
TTITLE8=Percy Sledge - When a Man Loves a Woman
TTITLE9=Randy Travis - Forever and Ever, Amen
TTITLE10=Rod Stewert - It Had to Be You
TTITLE11=Stevie Wonder - You Are the Sunshine of My Life
TTITLE12=Tanya Tucker - Strong Enough to Bend
TTITLE13=The Carpenters - We've Only Just Begun
TTITLE14=Vanessa Williams - Save the Best for Last
EXTD=
EXTT0=
EXTT1=
EXTT2=
EXTT3=
EXTT4=
EXTT5=
EXTT6=
EXTT7=
EXTT8=
EXTT9=
EXTT10=
EXTT11=
EXTT12=
EXTT13=
EXTT14=
PLAYORDER=
